# xmcd CD database file
#
# Track frame offsets:
#	150
#	33037
#	47952
#	67372
#	85285
#	106382
#	136740
#	164284
#	191487
#	213290
#	234732
#
# Disc length: 3283 seconds
#
# Revision: 4
# Processed by: cddbd v1.5.2PL0 Copyright (c) Steve Scherf et al.
# Submitted via: CDex 1.51
#
DISCID=980cd10b
DTITLE=Matt "Guitar" Murphy - Lucky Charm
DYEAR=1900
DGENRE=Blues
TTITLE0=Boogie Overture
TTITLE1=What's Up With You Baby
TTITLE2=Who's Got The Puddy
TTITLE3=Good Luck Charm
TTITLE4=I Remember
TTITLE5=Got Me Carrying A Stick
TTITLE6=J.F.A.
TTITLE7=Willie Mae
TTITLE8=Oh No, I'm Falling In Love Again
TTITLE9=Time To Move On
TTITLE10=Headin' Northwest
EXTD=
EXTT0=
EXTT1=
EXTT2=
EXTT3=
EXTT4=
EXTT5=
EXTT6=
EXTT7=
EXTT8=
EXTT9=
EXTT10=
PLAYORDER=
